<?xml version="1.0" encoding="utf-8"?>
<!-- Generator: Adobe Illustrator 22.0.0, SVG Export Plug-In . SVG Version: 6.00 Build 0)  -->
<svg version="1.1" id="Layer_1" xmlns="http://www.w3.org/2000/svg" xmlns:xlink="http://www.w3.org/1999/xlink" x="0px" y="0px"
	 viewBox="0 0 1908 556.5" style="enable-background:new 0 0 1908 556.5;" xml:space="preserve">
<style type="text/css">
	.st0{fill:#232E5E;}
	.st1{fill:#E85436;}
</style>
<g>
	<path class="st0" d="M245.9,400.8l14.2-9.8c3.5-2.4,6.5-5.2,8.8-8.3c3-4,4.5-8.7,4.5-14.5c0-8.3-2.8-14.8-8.5-19.9
		c-6.3-5.6-14.5-10.3-24.4-13.9c-10.3-3.8-21.8-7.3-34.2-10.4c-12.9-3.2-25.2-6.8-36.6-10.9c-11.9-4.2-22.4-9.6-31.4-16
		c-9.7-6.9-16-16.1-18.8-27.4c-1.6-10.3,0.3-19.8,5.3-28.7c4.8-8.5,11.7-16,20.5-22.4c8.7-6.3,19-11.3,30.8-15
		c11.7-3.7,24.1-5.5,36.8-5.5c14.3,0,26.9,2.1,37.6,6.1c10.6,4,19.7,8.9,27.2,14.5c7.5,5.7,13.5,11.8,17.8,18.1
		c4.4,6.5,6.9,12,7.9,16.8l1.2,6.4h-39.1l-1.5-3c-4.3-8.7-11-15.1-20.3-19.6c-9.6-4.7-20-7.1-30.8-7.3l-1.7,0
		c-6.8,0-13.6,1-20.3,2.9c-7.3,2.1-13.8,4.9-19.3,8.4c-5.2,3.4-9.3,7.4-12,11.9c-2.4,4-3,8-1.8,12.5c1.6,5.5,5.7,9.9,12.6,13.3
		c7.8,3.9,17.4,7.5,28.5,10.7c11.4,3.2,23.5,6.5,36,9.6c12.9,3.3,25.1,7.6,36,12.9c11.3,5.4,20.7,12.5,28.2,21.1
		c7.8,9,11.7,20.8,11.7,35c0,10.7-2.9,20.4-8.5,28.9c-0.2,0.4-0.5,0.7-0.8,1l-1.6,2.3l-3,0.3H245.9z"/>
	<path class="st1" d="M127.9,400.8l-1.6-2c-2.4-2.9-4.3-5.6-5.9-8.1c-6-9.5-9-20.1-9-31.6v-5.4h37.3v5.4c0,5.9,1.6,11.3,4.7,16.5
		c3.2,5.4,7.8,10.1,13.5,14.1c0.3,0.2,0.6,0.4,0.9,0.6l0.9,0.6l15.1,9.9H127.9z"/>
	<polygon class="st0" points="343.3,400.8 343.3,237.4 309.4,237.4 309.4,200 343.3,200 343.3,124 380.7,124 380.7,200 455.5,200 
		455.5,237.4 380.7,237.4 380.7,400.8 	"/>
	<path class="st0" d="M561.3,200v109.9c0,7.3-1.4,14.3-4.1,20.7c-2.8,6.4-6.6,12.1-11.4,16.7c-4.8,4.7-10.5,8.5-17,11.3
		c-6.4,2.7-13.4,4.1-20.7,4.1c-7.3,0-14.2-1.4-20.5-4.1c-6.4-2.8-12-6.6-16.9-11.3c-4.7-4.6-8.6-10.2-11.3-16.7
		c-2.7-6.4-4.1-13.3-4.1-21.1l-0.2-82H417l0.2,82.4c0,12.4,2.5,24.2,7.3,35.2c4.8,11,11.4,20.7,19.6,28.8
		c8.2,8.2,17.9,14.8,28.8,19.5c11,4.9,22.9,7.3,35.2,7.3c12.4,0,24.2-2.5,35.2-7.3c10.9-4.8,20.6-11.4,28.8-19.5
		c8.2-8.2,14.7-17.9,19.4-28.9c4.7-11,7.1-22.8,7.1-35.2V200H561.3z"/>
	<path class="st0" d="M724.6,410c-15.1,0-29.5-2.9-42.8-8.6c-13.2-5.7-25-13.6-34.9-23.6c-10-10-17.9-21.7-23.6-34.9
		c-5.7-13.3-8.6-27.7-8.6-42.8c0-15.1,2.9-29.5,8.6-42.8c5.7-13.2,13.6-25,23.6-34.9c9.9-9.9,21.7-17.9,34.9-23.5
		c13.3-5.7,27.7-8.6,42.8-8.6c15.2,0,31,4.1,46.9,12.2c10.2,5.2,18.8,11.3,25.6,18.2V124h37.4v176c0,15.1-2.9,29.5-8.6,42.8
		c-5.7,13.2-13.6,25-23.6,34.9c-10,10-21.7,17.9-34.9,23.6C754.1,407.1,739.7,410,724.6,410z M724.6,227.5c-9.9,0-19.3,1.9-28.1,5.6
		c-8.8,3.8-16.6,9-23.2,15.6c-6.6,6.6-11.8,14.4-15.6,23.2c-3.7,8.7-5.6,18.2-5.6,28.1c0,9.9,1.9,19.4,5.6,28.1
		c3.7,8.8,9,16.6,15.6,23.2c6.5,6.5,14.4,11.8,23.2,15.6c8.8,3.7,18.2,5.6,28.1,5.6c9.9,0,19.3-1.9,28.1-5.6
		c8.8-3.8,16.7-9,23.2-15.6c6.6-6.6,11.8-14.4,15.6-23.2c3.7-8.8,5.6-18.2,5.6-28.1c0-9.9-1.9-19.3-5.6-28.1
		c-3.8-8.8-9-16.6-15.6-23.2c-6.6-6.6-14.4-11.8-23.2-15.6C743.9,229.4,734.5,227.5,724.6,227.5z"/>
	<path class="st0" d="M854.6,400.8V200h37.3v200.8H854.6z M873.6,166.7c-6,0-11.1-2.1-15.2-6.1c-4.1-4-6.1-9.1-6.1-15.2
		c0-6.1,2.1-11.2,6.1-15.2c4.1-4.1,9.2-6.1,15.2-6.1c6,0,11.1,2.1,15.2,6.1c4.1,4.1,6.1,9.2,6.1,15.2c0,6-2.1,11.1-6.1,15.2
		C884.8,164.6,879.6,166.7,873.6,166.7z"/>
	<path class="st0" d="M1469.1,196.8h19.9v198.5h-19.9v-77.1h-92.4v77.1h-19.8V196.8h19.8v101.5h92.4V196.8z"/>
	<path class="st0" d="M1530.3,336.1c0,6.4,1.2,12.5,3.6,18.2c2.4,5.6,5.6,10.6,9.8,14.7c4.1,4.2,9,7.4,14.8,9.8
		c5.6,2.4,11.7,3.6,18.1,3.6c6.4,0,12.5-1.2,18.1-3.6c5.7-2.4,10.6-5.6,14.7-9.8c4.2-4.1,7.4-9.1,9.8-14.7
		c2.4-5.7,3.6-11.7,3.6-18.2V196.8h19.8v139.3c0,9.3-1.7,17.9-5.1,26c-3.4,8-8.1,15-14,21c-6,5.9-12.9,10.7-21,14
		c-8.1,3.4-16.7,5.1-26,5.1c-9.3,0-17.9-1.7-26-5.1c-8-3.4-15-8.1-21-14c-5.9-6-10.6-13-14-21c-3.4-8-5.1-16.7-5.1-26V196.8h19.8
		V336.1z"/>
	<path class="st0" d="M1778.8,380.9c-12.3,9.6-28.9,14.4-49.6,14.4h-65V196.8h53.3c20.4,0,36.5,4.7,48.2,14.2
		c11.3,9.6,17,22.7,17,39.3c0,8.6-1.4,16-4.4,22.4c-2.9,6.4-7.2,12.1-12.6,17c-0.4,0.4-0.7,0.7-1.1,0.8c5.3,2.1,10,4.7,14.2,7.9
		c5.8,5.5,10.3,11.5,13.3,18c3,6.5,4.5,14.3,4.5,23.4C1796.6,356.9,1790.7,370.5,1778.8,380.9z M1750.1,275.4
		c7.6-6.1,11.4-14.4,11.4-25c0-10.4-3.8-18.8-11.4-25.2c-8.1-6-18.8-9.1-32-9.1h-34v68.4h42.5
		C1735.3,284.5,1743.1,281.5,1750.1,275.4z M1762.6,366.1c8.1-6.8,12.2-15.5,12.2-26.2c0-11.4-4.1-20.3-12.2-26.7
		c-7.4-6.2-18.4-9.4-33.2-9.4H1684v71.8h45.4C1744.2,375.5,1755.2,372.4,1762.6,366.1z"/>
	<path class="st1" d="M1123.5,255.9c-5.9-13.8-14-25.8-24.3-36.1c-10.3-10.3-22.3-18.4-36.1-24.3c-13.8-5.9-28.5-8.9-44.2-8.9
		c-15.7,0-30.4,3-44.2,8.9c-13.8,5.9-25.8,14-36.1,24.3c-10.3,10.3-18.4,22.3-24.4,36.1c-5.9,13.8-8.9,28.5-8.9,44.1
		c0,15.7,3,30.4,8.9,44.2c5.9,13.8,14,25.8,24.4,36.1c0.4,0.4,0.9,0.8,1.3,1.2l20.1-20.7c0,0,0,0,0,0l4.6-4.8
		c-0.3-0.3-0.6-0.6-0.9-0.9c-7.1-7.1-12.7-15.4-16.7-24.9c-4.1-9.5-6.1-19.6-6.1-30.2c0-10.7,2-20.7,6.1-30.2
		c4-9.5,9.6-17.8,16.7-24.9c7.1-7.1,15.4-12.7,24.9-16.7c9.5-4,19.6-6.1,30.2-6.1c10.6,0,20.7,2,30.2,6.1
		c9.5,4.1,17.8,9.7,24.9,16.7c7.1,7.1,12.7,15.4,16.7,24.9c4.1,9.5,6.1,19.6,6.1,30.2c0,10.6-2,20.7-6.1,30.2
		c-4,9.5-9.6,17.8-16.7,24.9c-7.1,7.1-15.4,12.7-24.9,16.7c-9.5,4.1-19.6,6.1-30.2,6.1c-2.9,0-5.7-0.2-8.5-0.5l-3.2,26.4
		c0,0,0.1,0,0.1,0l-1.1,8.9c4.2,0.5,8.4,0.7,12.7,0.7c15.7,0,30.4-3,44.2-8.9c13.8-5.9,25.8-14,36.1-24.3
		c10.3-10.3,18.4-22.3,24.3-36.1c5.9-13.8,8.9-28.5,8.9-44.2C1132.3,284.4,1129.4,269.7,1123.5,255.9z"/>
	<polygon class="st0" points="1007,324.4 992.3,444.7 966.4,410.2 922.8,411.3 	"/>
	<path class="st1" d="M1234.1,194c-4.4,12.3-12.5,23-24.3,32.2c-2,1.5-3.9,2.9-5.8,4.2v37.3c8.2-4.8,15.8-10.5,22.8-17.1V396h38.6
		V194H1234.1z"/>
	<path class="st1" d="M1042.9,300c0,13.2-10.8,24-24,24c-13.3,0-24-10.8-24-24c0-13.3,10.7-24,24-24
		C1032.1,276.1,1042.9,286.8,1042.9,300z"/>
</g>
</svg>
